<?xml version="1.0" encoding="UTF-8"?><svg id="Layer_2" xmlns="http://www.w3.org/2000/svg" viewBox="0 0 112.25 129.61"><defs><style>.cls-1{fill:#111;stroke-width:0px;}</style></defs><g id="Capa_1"><path class="cls-1" d="M57.98,1.07l-1.86-1.07L1.84,31.34l-1.84,1.06v64.81l54.28,31.34,1.84,1.06,55.92-32.28.21-.12V32.4L57.98,1.07ZM48.9,119.33L5.29,94.16v-50.35l43.6,75.52ZM12.52,31.29L56.13,6.11l43.6,25.18H12.52ZM105.02,36.58l-48.9,84.69L7.23,36.58h97.79ZM106.96,43.81v50.35l-43.6,25.18,43.6-75.52Z"/><polygon class="cls-1" points="72.09 38.63 56.24 60.79 70.14 65.11 40.16 90.99 56.24 68.85 42.12 65.11 72.09 38.63"/></g></svg>